<svg version="1.1" viewBox="0 0 850 1365.1" enable-background="new 0 0 850 1365.1" preserveAspectRatio="xMinYMin slice"><path d="M-42.85254915624211 -122.80339887498948 L-165.75424859373686 -5.803398874989483 L-16.95084971874737 -22.803398874989483 Z" fill="#fa1092" shape-rendering="geometricPrecision"></path><path d="M-42.85254915624211 -122.80339887498948 L-16.95084971874737 -22.803398874989483 L39.95084971874737 -79.80339887498948 Z" fill="#ec1092" shape-rendering="geometricPrecision"></path><path d="M39.95084971874737 -79.80339887498948 L-16.95084971874737 -22.803398874989483 L117.8525491562421 -6.803398874989483 Z" fill="#e51092" shape-rendering="geometricPrecision"></path><path d="M39.95084971874737 -79.80339887498948 L117.8525491562421 -6.803398874989483 L126.75424859373686 -108.80339887498948 Z" fill="#d51092" shape-rendering="geometricPrecision"></path><path d="M126.75424859373686 -108.80339887498948 L117.8525491562421 -6.803398874989483 L245.65594803123153 -11.803398874989483 Z" fill="#e41092" shape-rendering="geometricPrecision"></path><path d="M126.75424859373686 -108.80339887498948 L245.65594803123153 -11.803398874989483 L294.55764746872626 -67.80339887498948 Z" fill="#cd1092" shape-rendering="geometricPrecision"></path><path d="M294.55764746872626 -67.80339887498948 L245.65594803123153 -11.803398874989483 L343.45934690622107 -53.80339887498948 Z" fill="#d91092" shape-rendering="geometricPrecision"></path><path d="M294.55764746872626 -67.80339887498948 L343.45934690622107 -53.80339887498948 L407.36104634371577 -157.80339887498948 Z" fill="#c71092" shape-rendering="geometricPrecision"></path><path d="M407.36104634371577 -157.80339887498948 L343.45934690622107 -53.80339887498948 L420.2627457812106 -60.80339887498948 Z" fill="#ae1092" shape-rendering="geometricPrecision"></path><path d="M407.36104634371577 -157.80339887498948 L420.2627457812106 -60.80339887498948 L463.1644452187053 -146.80339887498948 Z" fill="#b91092" shape-rendering="geometricPrecision"></path><path d="M463.1644452187053 -146.80339887498948 L420.2627457812106 -60.80339887498948 L520.0661446562 36.19660112501052 Z" fill="#a31092" shape-rendering="geometricPrecision"></path><path d="M463.1644452187053 -146.80339887498948 L520.0661446562 36.19660112501052 L610.9678440936947 -127.80339887498948 Z" fill="#9e1092" shape-rendering="geometricPrecision"></path><path d="M610.9678440936947 -127.80339887498948 L520.0661446562 36.19660112501052 L594.8695435311895 -58.80339887498948 Z" fill="#9f1092" shape-rendering="geometricPrecision"></path><path d="M610.9678440936947 -127.80339887498948 L594.8695435311895 -58.80339887498948 L737.7712429686842 -152.80339887498948 Z" fill="#a01092" shape-rendering="geometricPrecision"></path><path d="M737.7712429686842 -152.80339887498948 L594.8695435311895 -58.80339887498948 L764.672942406179 35.19660112501052 Z" fill="#981092" shape-rendering="geometricPrecision"></path><path d="M737.7712429686842 -152.80339887498948 L764.672942406179 35.19660112501052 L791.5746418436737 -84.80339887498948 Z" fill="#9b1092" shape-rendering="geometricPrecision"></path><path d="M791.5746418436737 -84.80339887498948 L764.672942406179 35.19660112501052 L859.4763412811686 35.19660112501052 Z" fill="#881092" shape-rendering="geometricPrecision"></path><path d="M791.5746418436737 -84.80339887498948 L859.4763412811686 35.19660112501052 L946.3780407186633 -132.80339887498948 Z" fill="#951092" shape-rendering="geometricPrecision"></path><path d="M946.3780407186633 -132.80339887498948 L859.4763412811686 35.19660112501052 L997.2797401561581 -37.80339887498948 Z" fill="#761092" shape-rendering="geometricPrecision"></path><path d="M946.3780407186633 -132.80339887498948 L997.2797401561581 -37.80339887498948 L1062.1814395936528 -128.80339887498948 Z" fill="#7c1092" shape-rendering="geometricPrecision"></path><path d="M1062.1814395936528 -128.80339887498948 L997.2797401561581 -37.80339887498948 L1120.0831390311475 -50.80339887498948 Z" fill="#641092" shape-rendering="geometricPrecision"></path><path d="M-165.75424859373686 -5.803398874989483 L-62.85254915624211 59.19660112501052 L-16.95084971874737 -22.803398874989483 Z" fill="#f01092" shape-rendering="geometricPrecision"></path><path d="M-16.95084971874737 -22.803398874989483 L-62.85254915624211 59.19660112501052 L44.95084971874737 99.19660112501052 Z" fill="#e71092" shape-rendering="geometricPrecision"></path><path d="M-16.95084971874737 -22.803398874989483 L44.95084971874737 99.19660112501052 L117.8525491562421 -6.803398874989483 Z" fill="#dc1092" shape-rendering="geometricPrecision"></path><path d="M117.8525491562421 -6.803398874989483 L44.95084971874737 99.19660112501052 L119.75424859373686 114.19660112501052 Z" fill="#db1092" shape-rendering="geometricPrecision"></path><path d="M117.8525491562421 -6.803398874989483 L119.75424859373686 114.19660112501052 L245.65594803123153 -11.803398874989483 Z" fill="#c41092" shape-rendering="geometricPrecision"></path><path d="M245.65594803123153 -11.803398874989483 L119.75424859373686 114.19660112501052 L205.55764746872632 92.19660112501052 Z" fill="#d91092" shape-rendering="geometricPrecision"></path><path d="M245.65594803123153 -11.803398874989483 L205.55764746872632 92.19660112501052 L343.45934690622107 -53.80339887498948 Z" fill="#d11092" shape-rendering="geometricPrecision"></path><path d="M343.45934690622107 -53.80339887498948 L205.55764746872632 92.19660112501052 L348.36104634371577 137.19660112501052 Z" fill="#b81092" shape-rendering="geometricPrecision"></path><path d="M343.45934690622107 -53.80339887498948 L348.36104634371577 137.19660112501052 L420.2627457812106 -60.80339887498948 Z" fill="#c31092" shape-rendering="geometricPrecision"></path><path d="M420.2627457812106 -60.80339887498948 L348.36104634371577 137.19660112501052 L452.1644452187053 114.19660112501052 Z" fill="#b41092" shape-rendering="geometricPrecision"></path><path d="M420.2627457812106 -60.80339887498948 L452.1644452187053 114.19660112501052 L520.0661446562 36.19660112501052 Z" fill="#b61092" shape-rendering="geometricPrecision"></path><path d="M520.0661446562 36.19660112501052 L452.1644452187053 114.19660112501052 L630.9678440936947 57.19660112501052 Z" fill="#af1092" shape-rendering="geometricPrecision"></path><path d="M520.0661446562 36.19660112501052 L630.9678440936947 57.19660112501052 L594.8695435311895 -58.80339887498948 Z" fill="#901092" shape-rendering="geometricPrecision"></path><path d="M594.8695435311895 -58.80339887498948 L630.9678440936947 57.19660112501052 L692.7712429686842 65.19660112501052 Z" fill="#a31092" shape-rendering="geometricPrecision"></path><path d="M594.8695435311895 -58.80339887498948 L692.7712429686842 65.19660112501052 L764.672942406179 35.19660112501052 Z" fill="#831092" shape-rendering="geometricPrecision"></path><path d="M764.672942406179 35.19660112501052 L692.7712429686842 65.19660112501052 L785.5746418436737 112.19660112501052 Z" fill="#941092" shape-rendering="geometricPrecision"></path><path d="M764.672942406179 35.19660112501052 L785.5746418436737 112.19660112501052 L859.4763412811686 35.19660112501052 Z" fill="#901092" shape-rendering="geometricPrecision"></path><path d="M859.4763412811686 35.19660112501052 L785.5746418436737 112.19660112501052 L891.3780407186633 51.19660112501052 Z" fill="#7d1092" shape-rendering="geometricPrecision"></path><path d="M859.4763412811686 35.19660112501052 L891.3780407186633 51.19660112501052 L997.2797401561581 -37.80339887498948 Z" fill="#821092" shape-rendering="geometricPrecision"></path><path d="M997.2797401561581 -37.80339887498948 L891.3780407186633 51.19660112501052 L1049.1814395936528 102.19660112501052 Z" fill="#7e1092" shape-rendering="geometricPrecision"></path><path d="M997.2797401561581 -37.80339887498948 L1049.1814395936528 102.19660112501052 L1120.0831390311475 -50.80339887498948 Z" fill="#7c1092" shape-rendering="geometricPrecision"></path><path d="M-62.85254915624211 59.19660112501052 L-101.75424859373686 146.19660112501052 L-14.95084971874737 155.19660112501052 Z" fill="#db1092" shape-rendering="geometricPrecision"></path><path d="M-62.85254915624211 59.19660112501052 L-14.95084971874737 155.19660112501052 L44.95084971874737 99.19660112501052 Z" fill="#e21092" shape-rendering="geometricPrecision"></path><path d="M44.95084971874737 99.19660112501052 L-14.95084971874737 155.19660112501052 L87.8525491562421 180.19660112501052 Z" fill="#d11092" shape-rendering="geometricPrecision"></path><path d="M44.95084971874737 99.19660112501052 L87.8525491562421 180.19660112501052 L119.75424859373686 114.19660112501052 Z" fill="#dc1092" shape-rendering="geometricPrecision"></path><path d="M119.75424859373686 114.19660112501052 L87.8525491562421 180.19660112501052 L182.65594803123156 234.19660112501052 Z" fill="#be1092" shape-rendering="geometricPrecision"></path><path d="M119.75424859373686 114.19660112501052 L182.65594803123156 234.19660112501052 L205.55764746872632 92.19660112501052 Z" fill="#b61092" shape-rendering="geometricPrecision"></path><path d="M205.55764746872632 92.19660112501052 L182.65594803123156 234.19660112501052 L342.45934690622107 147.19660112501052 Z" fill="#c41092" shape-rendering="geometricPrecision"></path><path d="M205.55764746872632 92.19660112501052 L342.45934690622107 147.19660112501052 L348.36104634371577 137.19660112501052 Z" fill="#ac1092" shape-rendering="geometricPrecision"></path><path d="M348.36104634371577 137.19660112501052 L342.45934690622107 147.19660112501052 L412.2627457812106 210.19660112501052 Z" fill="#a71092" shape-rendering="geometricPrecision"></path><path d="M348.36104634371577 137.19660112501052 L412.2627457812106 210.19660112501052 L452.1644452187053 114.19660112501052 Z" fill="#9e1092" shape-rendering="geometricPrecision"></path><path d="M452.1644452187053 114.19660112501052 L412.2627457812106 210.19660112501052 L521.0661446562 196.19660112501052 Z" fill="#9c1092" shape-rendering="geometricPrecision"></path><path d="M452.1644452187053 114.19660112501052 L521.0661446562 196.19660112501052 L630.9678440936947 57.19660112501052 Z" fill="#8e1092" shape-rendering="geometricPrecision"></path><path d="M630.9678440936947 57.19660112501052 L521.0661446562 196.19660112501052 L611.8695435311895 153.19660112501052 Z" fill="#a71092" shape-rendering="geometricPrecision"></path><path d="M630.9678440936947 57.19660112501052 L611.8695435311895 153.19660112501052 L692.7712429686842 65.19660112501052 Z" fill="#9e1092" shape-rendering="geometricPrecision"></path><path d="M692.7712429686842 65.19660112501052 L611.8695435311895 153.19660112501052 L713.672942406179 194.19660112501052 Z" fill="#7c1092" shape-rendering="geometricPrecision"></path><path d="M692.7712429686842 65.19660112501052 L713.672942406179 194.19660112501052 L785.5746418436737 112.19660112501052 Z" fill="#791092" shape-rendering="geometricPrecision"></path><path d="M785.5746418436737 112.19660112501052 L713.672942406179 194.19660112501052 L832.4763412811685 223.19660112501052 Z" fill="#721092" shape-rendering="geometricPrecision"></path><path d="M785.5746418436737 112.19660112501052 L832.4763412811685 223.19660112501052 L891.3780407186633 51.19660112501052 Z" fill="#731092" shape-rendering="geometricPrecision"></path><path d="M891.3780407186633 51.19660112501052 L832.4763412811685 223.19660112501052 L964.279740156158 197.19660112501052 Z" fill="#6e1092" shape-rendering="geometricPrecision"></path><path d="M891.3780407186633 51.19660112501052 L964.279740156158 197.19660112501052 L1049.1814395936528 102.19660112501052 Z" fill="#651092" shape-rendering="geometricPrecision"></path><path d="M1049.1814395936528 102.19660112501052 L964.279740156158 197.19660112501052 L1059.0831390311475 140.19660112501052 Z" fill="#691092" shape-rendering="geometricPrecision"></path><path d="M-101.75424859373686 146.19660112501052 L-51.85254915624211 264.1966011250105 L-14.95084971874737 155.19660112501052 Z" fill="#eb1092" shape-rendering="geometricPrecision"></path><path d="M-14.95084971874737 155.19660112501052 L-51.85254915624211 264.1966011250105 L38.95084971874737 247.19660112501052 Z" fill="#d91092" shape-rendering="geometricPrecision"></path><path d="M-14.95084971874737 155.19660112501052 L38.95084971874737 247.19660112501052 L87.8525491562421 180.19660112501052 Z" fill="#cd1092" shape-rendering="geometricPrecision"></path><path d="M87.8525491562421 180.19660112501052 L38.95084971874737 247.19660112501052 L108.75424859373686 323.1966011250105 Z" fill="#c81092" shape-rendering="geometricPrecision"></path><path d="M87.8525491562421 180.19660112501052 L108.75424859373686 323.1966011250105 L182.65594803123156 234.19660112501052 Z" fill="#b81092" shape-rendering="geometricPrecision"></path><path d="M182.65594803123156 234.19660112501052 L108.75424859373686 323.1966011250105 L238.55764746872632 243.19660112501052 Z" fill="#be1092" shape-rendering="geometricPrecision"></path><path d="M182.65594803123156 234.19660112501052 L238.55764746872632 243.19660112501052 L342.45934690622107 147.19660112501052 Z" fill="#c11092" shape-rendering="geometricPrecision"></path><path d="M342.45934690622107 147.19660112501052 L238.55764746872632 243.19660112501052 L326.36104634371577 314.1966011250105 Z" fill="#a41092" shape-rendering="geometricPrecision"></path><path d="M342.45934690622107 147.19660112501052 L326.36104634371577 314.1966011250105 L412.2627457812106 210.19660112501052 Z" fill="#b31092" shape-rendering="geometricPrecision"></path><path d="M412.2627457812106 210.19660112501052 L326.36104634371577 314.1966011250105 L451.1644452187053 335.1966011250105 Z" fill="#981092" shape-rendering="geometricPrecision"></path><path d="M412.2627457812106 210.19660112501052 L451.1644452187053 335.1966011250105 L521.0661446562 196.19660112501052 Z" fill="#8f1092" shape-rendering="geometricPrecision"></path><path d="M521.0661446562 196.19660112501052 L451.1644452187053 335.1966011250105 L571.9678440936947 239.19660112501052 Z" fill="#901092" shape-rendering="geometricPrecision"></path><path d="M521.0661446562 196.19660112501052 L571.9678440936947 239.19660112501052 L611.8695435311895 153.19660112501052 Z" fill="#901092" shape-rendering="geometricPrecision"></path><path d="M611.8695435311895 153.19660112501052 L571.9678440936947 239.19660112501052 L667.7712429686842 315.1966011250105 Z" fill="#7e1092" shape-rendering="geometricPrecision"></path><path d="M611.8695435311895 153.19660112501052 L667.7712429686842 315.1966011250105 L713.672942406179 194.19660112501052 Z" fill="#931092" shape-rendering="geometricPrecision"></path><path d="M713.672942406179 194.19660112501052 L667.7712429686842 315.1966011250105 L776.5746418436737 286.1966011250105 Z" fill="#751092" shape-rendering="geometricPrecision"></path><path d="M713.672942406179 194.19660112501052 L776.5746418436737 286.1966011250105 L832.4763412811685 223.19660112501052 Z" fill="#6f1092" shape-rendering="geometricPrecision"></path><path d="M832.4763412811685 223.19660112501052 L776.5746418436737 286.1966011250105 L968.3780407186633 337.1966011250105 Z" fill="#661092" shape-rendering="geometricPrecision"></path><path d="M832.4763412811685 223.19660112501052 L968.3780407186633 337.1966011250105 L964.279740156158 197.19660112501052 Z" fill="#6e1092" shape-rendering="geometricPrecision"></path><path d="M964.279740156158 197.19660112501052 L968.3780407186633 337.1966011250105 L1081.1814395936528 250.19660112501052 Z" fill="#581092" shape-rendering="geometricPrecision"></path><path d="M964.279740156158 197.19660112501052 L1081.1814395936528 250.19660112501052 L1059.0831390311475 140.19660112501052 Z" fill="#691092" shape-rendering="geometricPrecision"></path><path d="M-51.85254915624211 264.1966011250105 L-147.75424859373686 361.1966011250105 L-33.95084971874737 433.1966011250105 Z" fill="#de1092" shape-rendering="geometricPrecision"></path><path d="M-51.85254915624211 264.1966011250105 L-33.95084971874737 433.1966011250105 L38.95084971874737 247.19660112501052 Z" fill="#c01092" shape-rendering="geometricPrecision"></path><path d="M38.95084971874737 247.19660112501052 L-33.95084971874737 433.1966011250105 L85.8525491562421 408.1966011250105 Z" fill="#d61092" shape-rendering="geometricPrecision"></path><path d="M38.95084971874737 247.19660112501052 L85.8525491562421 408.1966011250105 L108.75424859373686 323.1966011250105 Z" fill="#c21092" shape-rendering="geometricPrecision"></path><path d="M108.75424859373686 323.1966011250105 L85.8525491562421 408.1966011250105 L228.65594803123153 391.1966011250105 Z" fill="#bd1092" shape-rendering="geometricPrecision"></path><path d="M108.75424859373686 323.1966011250105 L228.65594803123153 391.1966011250105 L238.55764746872632 243.19660112501052 Z" fill="#b41092" shape-rendering="geometricPrecision"></path><path d="M238.55764746872632 243.19660112501052 L228.65594803123153 391.1966011250105 L341.45934690622107 428.1966011250105 Z" fill="#a61092" shape-rendering="geometricPrecision"></path><path d="M238.55764746872632 243.19660112501052 L341.45934690622107 428.1966011250105 L326.36104634371577 314.1966011250105 Z" fill="#b21092" shape-rendering="geometricPrecision"></path><path d="M326.36104634371577 314.1966011250105 L341.45934690622107 428.1966011250105 L386.2627457812106 388.1966011250105 Z" fill="#ac1092" shape-rendering="geometricPrecision"></path><path d="M326.36104634371577 314.1966011250105 L386.2627457812106 388.1966011250105 L451.1644452187053 335.1966011250105 Z" fill="#911092" shape-rendering="geometricPrecision"></path><path d="M451.1644452187053 335.1966011250105 L386.2627457812106 388.1966011250105 L558.0661446562 431.1966011250105 Z" fill="#9d1092" shape-rendering="geometricPrecision"></path><path d="M451.1644452187053 335.1966011250105 L558.0661446562 431.1966011250105 L571.9678440936947 239.19660112501052 Z" fill="#871092" shape-rendering="geometricPrecision"></path><path d="M571.9678440936947 239.19660112501052 L558.0661446562 431.1966011250105 L688.8695435311895 363.1966011250105 Z" fill="#8d1092" shape-rendering="geometricPrecision"></path><path d="M571.9678440936947 239.19660112501052 L688.8695435311895 363.1966011250105 L667.7712429686842 315.1966011250105 Z" fill="#7d1092" shape-rendering="geometricPrecision"></path><path d="M667.7712429686842 315.1966011250105 L688.8695435311895 363.1966011250105 L723.672942406179 395.1966011250105 Z" fill="#871092" shape-rendering="geometricPrecision"></path><path d="M667.7712429686842 315.1966011250105 L723.672942406179 395.1966011250105 L776.5746418436737 286.1966011250105 Z" fill="#841092" shape-rendering="geometricPrecision"></path><path d="M776.5746418436737 286.1966011250105 L723.672942406179 395.1966011250105 L904.4763412811686 405.1966011250105 Z" fill="#6a1092" shape-rendering="geometricPrecision"></path><path d="M776.5746418436737 286.1966011250105 L904.4763412811686 405.1966011250105 L968.3780407186633 337.1966011250105 Z" fill="#5e1092" shape-rendering="geometricPrecision"></path><path d="M968.3780407186633 337.1966011250105 L904.4763412811686 405.1966011250105 L963.279740156158 384.1966011250105 Z" fill="#5c1092" shape-rendering="geometricPrecision"></path><path d="M968.3780407186633 337.1966011250105 L963.279740156158 384.1966011250105 L1081.1814395936528 250.19660112501052 Z" fill="#6b1092" shape-rendering="geometricPrecision"></path><path d="M1081.1814395936528 250.19660112501052 L963.279740156158 384.1966011250105 L1123.0831390311475 362.1966011250105 Z" fill="#4f1092" shape-rendering="geometricPrecision"></path><path d="M-147.75424859373686 361.1966011250105 L-67.8525491562421 502.1966011250105 L-33.95084971874737 433.1966011250105 Z" fill="#d61092" shape-rendering="geometricPrecision"></path><path d="M-33.95084971874737 433.1966011250105 L-67.8525491562421 502.1966011250105 L56.95084971874737 482.1966011250105 Z" fill="#d11092" shape-rendering="geometricPrecision"></path><path d="M-33.95084971874737 433.1966011250105 L56.95084971874737 482.1966011250105 L85.8525491562421 408.1966011250105 Z" fill="#c11092" shape-rendering="geometricPrecision"></path><path d="M85.8525491562421 408.1966011250105 L56.95084971874737 482.1966011250105 L112.75424859373686 451.1966011250105 Z" fill="#ba1092" shape-rendering="geometricPrecision"></path><path d="M85.8525491562421 408.1966011250105 L112.75424859373686 451.1966011250105 L228.65594803123153 391.1966011250105 Z" fill="#b01092" shape-rendering="geometricPrecision"></path><path d="M228.65594803123153 391.1966011250105 L112.75424859373686 451.1966011250105 L239.55764746872632 492.1966011250105 Z" fill="#b71092" shape-rendering="geometricPrecision"></path><path d="M228.65594803123153 391.1966011250105 L239.55764746872632 492.1966011250105 L341.45934690622107 428.1966011250105 Z" fill="#b01092" shape-rendering="geometricPrecision"></path><path d="M341.45934690622107 428.1966011250105 L239.55764746872632 492.1966011250105 L354.36104634371577 479.1966011250105 Z" fill="#a41092" shape-rendering="geometricPrecision"></path><path d="M341.45934690622107 428.1966011250105 L354.36104634371577 479.1966011250105 L386.2627457812106 388.1966011250105 Z" fill="#901092" shape-rendering="geometricPrecision"></path><path d="M386.2627457812106 388.1966011250105 L354.36104634371577 479.1966011250105 L516.1644452187053 519.1966011250105 Z" fill="#941092" shape-rendering="geometricPrecision"></path><path d="M386.2627457812106 388.1966011250105 L516.1644452187053 519.1966011250105 L558.0661446562 431.1966011250105 Z" fill="#941092" shape-rendering="geometricPrecision"></path><path d="M558.0661446562 431.1966011250105 L516.1644452187053 519.1966011250105 L597.9678440936947 528.1966011250105 Z" fill="#8e1092" shape-rendering="geometricPrecision"></path><path d="M558.0661446562 431.1966011250105 L597.9678440936947 528.1966011250105 L688.8695435311895 363.1966011250105 Z" fill="#811092" shape-rendering="geometricPrecision"></path><path d="M688.8695435311895 363.1966011250105 L597.9678440936947 528.1966011250105 L721.7712429686842 486.1966011250105 Z" fill="#721092" shape-rendering="geometricPrecision"></path><path d="M688.8695435311895 363.1966011250105 L721.7712429686842 486.1966011250105 L723.672942406179 395.1966011250105 Z" fill="#6a1092" shape-rendering="geometricPrecision"></path><path d="M723.672942406179 395.1966011250105 L721.7712429686842 486.1966011250105 L854.5746418436737 511.1966011250105 Z" fill="#651092" shape-rendering="geometricPrecision"></path><path d="M723.672942406179 395.1966011250105 L854.5746418436737 511.1966011250105 L904.4763412811686 405.1966011250105 Z" fill="#5d1092" shape-rendering="geometricPrecision"></path><path d="M904.4763412811686 405.1966011250105 L854.5746418436737 511.1966011250105 L947.3780407186633 497.1966011250105 Z" fill="#631092" shape-rendering="geometricPrecision"></path><path d="M904.4763412811686 405.1966011250105 L947.3780407186633 497.1966011250105 L963.279740156158 384.1966011250105 Z" fill="#601092" shape-rendering="geometricPrecision"></path><path d="M963.279740156158 384.1966011250105 L947.3780407186633 497.1966011250105 L1049.1814395936528 525.1966011250105 Z" fill="#551092" shape-rendering="geometricPrecision"></path><path d="M963.279740156158 384.1966011250105 L1049.1814395936528 525.1966011250105 L1123.0831390311475 362.1966011250105 Z" fill="#4b1092" shape-rendering="geometricPrecision"></path><path d="M-67.8525491562421 502.1966011250105 L-154.75424859373686 592.1966011250105 L-50.95084971874737 589.1966011250105 Z" fill="#d41092" shape-rendering="geometricPrecision"></path><path d="M-67.8525491562421 502.1966011250105 L-50.95084971874737 589.1966011250105 L56.95084971874737 482.1966011250105 Z" fill="#d11092" shape-rendering="geometricPrecision"></path><path d="M56.95084971874737 482.1966011250105 L-50.95084971874737 589.1966011250105 L95.8525491562421 608.1966011250105 Z" fill="#bf1092" shape-rendering="geometricPrecision"></path><path d="M56.95084971874737 482.1966011250105 L95.8525491562421 608.1966011250105 L112.75424859373686 451.1966011250105 Z" fill="#ac1092" shape-rendering="geometricPrecision"></path><path d="M112.75424859373686 451.1966011250105 L95.8525491562421 608.1966011250105 L191.65594803123156 626.1966011250105 Z" fill="#ba1092" shape-rendering="geometricPrecision"></path><path d="M112.75424859373686 451.1966011250105 L191.65594803123156 626.1966011250105 L239.55764746872632 492.1966011250105 Z" fill="#9c1092" shape-rendering="geometricPrecision"></path><path d="M239.55764746872632 492.1966011250105 L191.65594803123156 626.1966011250105 L273.45934690622107 554.1966011250105 Z" fill="#a51092" shape-rendering="geometricPrecision"></path><path d="M239.55764746872632 492.1966011250105 L273.45934690622107 554.1966011250105 L354.36104634371577 479.1966011250105 Z" fill="#ac1092" shape-rendering="geometricPrecision"></path><path d="M354.36104634371577 479.1966011250105 L273.45934690622107 554.1966011250105 L424.2627457812106 561.1966011250105 Z" fill="#941092" shape-rendering="geometricPrecision"></path><path d="M354.36104634371577 479.1966011250105 L424.2627457812106 561.1966011250105 L516.1644452187053 519.1966011250105 Z" fill="#931092" shape-rendering="geometricPrecision"></path><path d="M516.1644452187053 519.1966011250105 L424.2627457812106 561.1966011250105 L553.0661446562 584.1966011250105 Z" fill="#8b1092" shape-rendering="geometricPrecision"></path><path d="M516.1644452187053 519.1966011250105 L553.0661446562 584.1966011250105 L597.9678440936947 528.1966011250105 Z" fill="#7d1092" shape-rendering="geometricPrecision"></path><path d="M597.9678440936947 528.1966011250105 L553.0661446562 584.1966011250105 L601.8695435311895 609.1966011250105 Z" fill="#761092" shape-rendering="geometricPrecision"></path><path d="M597.9678440936947 528.1966011250105 L601.8695435311895 609.1966011250105 L721.7712429686842 486.1966011250105 Z" fill="#861092" shape-rendering="geometricPrecision"></path><path d="M721.7712429686842 486.1966011250105 L601.8695435311895 609.1966011250105 L745.672942406179 562.1966011250105 Z" fill="#7d1092" shape-rendering="geometricPrecision"></path><path d="M721.7712429686842 486.1966011250105 L745.672942406179 562.1966011250105 L854.5746418436737 511.1966011250105 Z" fill="#771092" shape-rendering="geometricPrecision"></path><path d="M854.5746418436737 511.1966011250105 L745.672942406179 562.1966011250105 L833.4763412811685 540.1966011250105 Z" fill="#5d1092" shape-rendering="geometricPrecision"></path><path d="M854.5746418436737 511.1966011250105 L833.4763412811685 540.1966011250105 L947.3780407186633 497.1966011250105 Z" fill="#5a1092" shape-rendering="geometricPrecision"></path><path d="M947.3780407186633 497.1966011250105 L833.4763412811685 540.1966011250105 L983.279740156158 544.1966011250105 Z" fill="#671092" shape-rendering="geometricPrecision"></path><path d="M947.3780407186633 497.1966011250105 L983.279740156158 544.1966011250105 L1049.1814395936528 525.1966011250105 Z" fill="#581092" shape-rendering="geometricPrecision"></path><path d="M1049.1814395936528 525.1966011250105 L983.279740156158 544.1966011250105 L1076.0831390311475 581.1966011250105 Z" fill="#581092" shape-rendering="geometricPrecision"></path><path d="M-154.75424859373686 592.1966011250105 L-47.85254915624211 698.1966011250105 L-50.95084971874737 589.1966011250105 Z" fill="#b51092" shape-rendering="geometricPrecision"></path><path d="M-50.95084971874737 589.1966011250105 L-47.85254915624211 698.1966011250105 L-14.04915028125263 660.1966011250105 Z" fill="#bc1092" shape-rendering="geometricPrecision"></path><path d="M-50.95084971874737 589.1966011250105 L-14.04915028125263 660.1966011250105 L95.8525491562421 608.1966011250105 Z" fill="#bb1092" shape-rendering="geometricPrecision"></path><path d="M95.8525491562421 608.1966011250105 L-14.04915028125263 660.1966011250105 L106.75424859373686 686.1966011250105 Z" fill="#a61092" shape-rendering="geometricPrecision"></path><path d="M95.8525491562421 608.1966011250105 L106.75424859373686 686.1966011250105 L191.65594803123156 626.1966011250105 Z" fill="#ac1092" shape-rendering="geometricPrecision"></path><path d="M191.65594803123156 626.1966011250105 L106.75424859373686 686.1966011250105 L265.5576474687263 694.1966011250105 Z" fill="#981092" shape-rendering="geometricPrecision"></path><path d="M191.65594803123156 626.1966011250105 L265.5576474687263 694.1966011250105 L273.45934690622107 554.1966011250105 Z" fill="#941092" shape-rendering="geometricPrecision"></path><path d="M273.45934690622107 554.1966011250105 L265.5576474687263 694.1966011250105 L389.36104634371577 713.1966011250105 Z" fill="#881092" shape-rendering="geometricPrecision"></path><path d="M273.45934690622107 554.1966011250105 L389.36104634371577 713.1966011250105 L424.2627457812106 561.1966011250105 Z" fill="#9c1092" shape-rendering="geometricPrecision"></path><path d="M424.2627457812106 561.1966011250105 L389.36104634371577 713.1966011250105 L470.1644452187053 690.1966011250105 Z" fill="#911092" shape-rendering="geometricPrecision"></path><path d="M424.2627457812106 561.1966011250105 L470.1644452187053 690.1966011250105 L553.0661446562 584.1966011250105 Z" fill="#8d1092" shape-rendering="geometricPrecision"></path><path d="M553.0661446562 584.1966011250105 L470.1644452187053 690.1966011250105 L609.9678440936947 693.1966011250105 Z" fill="#8b1092" shape-rendering="geometricPrecision"></path><path d="M553.0661446562 584.1966011250105 L609.9678440936947 693.1966011250105 L601.8695435311895 609.1966011250105 Z" fill="#7d1092" shape-rendering="geometricPrecision"></path><path d="M601.8695435311895 609.1966011250105 L609.9678440936947 693.1966011250105 L695.7712429686842 725.1966011250105 Z" fill="#691092" shape-rendering="geometricPrecision"></path><path d="M601.8695435311895 609.1966011250105 L695.7712429686842 725.1966011250105 L745.672942406179 562.1966011250105 Z" fill="#611092" shape-rendering="geometricPrecision"></path><path d="M745.672942406179 562.1966011250105 L695.7712429686842 725.1966011250105 L760.5746418436737 722.1966011250105 Z" fill="#611092" shape-rendering="geometricPrecision"></path><path d="M745.672942406179 562.1966011250105 L760.5746418436737 722.1966011250105 L833.4763412811685 540.1966011250105 Z" fill="#5d1092" shape-rendering="geometricPrecision"></path><path d="M833.4763412811685 540.1966011250105 L760.5746418436737 722.1966011250105 L900.3780407186633 676.1966011250105 Z" fill="#5a1092" shape-rendering="geometricPrecision"></path><path d="M833.4763412811685 540.1966011250105 L900.3780407186633 676.1966011250105 L983.279740156158 544.1966011250105 Z" fill="#461092" shape-rendering="geometricPrecision"></path><path d="M983.279740156158 544.1966011250105 L900.3780407186633 676.1966011250105 L1014.1814395936527 703.1966011250105 Z" fill="#461092" shape-rendering="geometricPrecision"></path><path d="M983.279740156158 544.1966011250105 L1014.1814395936527 703.1966011250105 L1076.0831390311475 581.1966011250105 Z" fill="#4c1092" shape-rendering="geometricPrecision"></path><path d="M-47.85254915624211 698.1966011250105 L-98.75424859373686 809.1966011250105 L-6.950849718747371 833.1966011250105 Z" fill="#c41092" shape-rendering="geometricPrecision"></path><path d="M-47.85254915624211 698.1966011250105 L-6.950849718747371 833.1966011250105 L-14.04915028125263 660.1966011250105 Z" fill="#af1092" shape-rendering="geometricPrecision"></path><path d="M-14.04915028125263 660.1966011250105 L-6.950849718747371 833.1966011250105 L58.85254915624211 828.1966011250105 Z" fill="#be1092" shape-rendering="geometricPrecision"></path><path d="M-14.04915028125263 660.1966011250105 L58.85254915624211 828.1966011250105 L106.75424859373686 686.1966011250105 Z" fill="#a41092" shape-rendering="geometricPrecision"></path><path d="M106.75424859373686 686.1966011250105 L58.85254915624211 828.1966011250105 L198.65594803123156 787.1966011250105 Z" fill="#9c1092" shape-rendering="geometricPrecision"></path><path d="M106.75424859373686 686.1966011250105 L198.65594803123156 787.1966011250105 L265.5576474687263 694.1966011250105 Z" fill="#9b1092" shape-rendering="geometricPrecision"></path><path d="M265.5576474687263 694.1966011250105 L198.65594803123156 787.1966011250105 L319.45934690622107 807.1966011250105 Z" fill="#8e1092" shape-rendering="geometricPrecision"></path><path d="M265.5576474687263 694.1966011250105 L319.45934690622107 807.1966011250105 L389.36104634371577 713.1966011250105 Z" fill="#891092" shape-rendering="geometricPrecision"></path><path d="M389.36104634371577 713.1966011250105 L319.45934690622107 807.1966011250105 L428.2627457812106 813.1966011250105 Z" fill="#921092" shape-rendering="geometricPrecision"></path><path d="M389.36104634371577 713.1966011250105 L428.2627457812106 813.1966011250105 L470.1644452187053 690.1966011250105 Z" fill="#841092" shape-rendering="geometricPrecision"></path><path d="M470.1644452187053 690.1966011250105 L428.2627457812106 813.1966011250105 L532.0661446562 815.1966011250105 Z" fill="#7a1092" shape-rendering="geometricPrecision"></path><path d="M470.1644452187053 690.1966011250105 L532.0661446562 815.1966011250105 L609.9678440936947 693.1966011250105 Z" fill="#711092" shape-rendering="geometricPrecision"></path><path d="M609.9678440936947 693.1966011250105 L532.0661446562 815.1966011250105 L689.8695435311895 766.1966011250105 Z" fill="#631092" shape-rendering="geometricPrecision"></path><path d="M609.9678440936947 693.1966011250105 L689.8695435311895 766.1966011250105 L695.7712429686842 725.1966011250105 Z" fill="#711092" shape-rendering="geometricPrecision"></path><path d="M695.7712429686842 725.1966011250105 L689.8695435311895 766.1966011250105 L747.672942406179 816.1966011250105 Z" fill="#601092" shape-rendering="geometricPrecision"></path><path d="M695.7712429686842 725.1966011250105 L747.672942406179 816.1966011250105 L760.5746418436737 722.1966011250105 Z" fill="#651092" shape-rendering="geometricPrecision"></path><path d="M760.5746418436737 722.1966011250105 L747.672942406179 816.1966011250105 L891.4763412811686 791.1966011250105 Z" fill="#4c1092" shape-rendering="geometricPrecision"></path><path d="M760.5746418436737 722.1966011250105 L891.4763412811686 791.1966011250105 L900.3780407186633 676.1966011250105 Z" fill="#4d1092" shape-rendering="geometricPrecision"></path><path d="M900.3780407186633 676.1966011250105 L891.4763412811686 791.1966011250105 L963.279740156158 747.1966011250105 Z" fill="#5a1092" shape-rendering="geometricPrecision"></path><path d="M900.3780407186633 676.1966011250105 L963.279740156158 747.1966011250105 L1014.1814395936527 703.1966011250105 Z" fill="#431092" shape-rendering="geometricPrecision"></path><path d="M1014.1814395936527 703.1966011250105 L963.279740156158 747.1966011250105 L1083.0831390311475 834.1966011250105 Z" fill="#461092" shape-rendering="geometricPrecision"></path><path d="M-98.75424859373686 809.1966011250105 L-125.8525491562421 904.1966011250105 L-6.950849718747371 833.1966011250105 Z" fill="#bd1092" shape-rendering="geometricPrecision"></path><path d="M-6.950849718747371 833.1966011250105 L-125.8525491562421 904.1966011250105 L41.95084971874737 902.1966011250105 Z" fill="#b41092" shape-rendering="geometricPrecision"></path><path d="M-6.950849718747371 833.1966011250105 L41.95084971874737 902.1966011250105 L58.85254915624211 828.1966011250105 Z" fill="#b71092" shape-rendering="geometricPrecision"></path><path d="M58.85254915624211 828.1966011250105 L41.95084971874737 902.1966011250105 L128.75424859373686 915.1966011250105 Z" fill="#b31092" shape-rendering="geometricPrecision"></path><path d="M58.85254915624211 828.1966011250105 L128.75424859373686 915.1966011250105 L198.65594803123156 787.1966011250105 Z" fill="#a71092" shape-rendering="geometricPrecision"></path><path d="M198.65594803123156 787.1966011250105 L128.75424859373686 915.1966011250105 L205.55764746872632 854.1966011250105 Z" fill="#a61092" shape-rendering="geometricPrecision"></path><path d="M198.65594803123156 787.1966011250105 L205.55764746872632 854.1966011250105 L319.45934690622107 807.1966011250105 Z" fill="#8c1092" shape-rendering="geometricPrecision"></path><path d="M319.45934690622107 807.1966011250105 L205.55764746872632 854.1966011250105 L366.36104634371577 904.1966011250105 Z" fill="#8e1092" shape-rendering="geometricPrecision"></path><path d="M319.45934690622107 807.1966011250105 L366.36104634371577 904.1966011250105 L428.2627457812106 813.1966011250105 Z" fill="#7f1092" shape-rendering="geometricPrecision"></path><path d="M428.2627457812106 813.1966011250105 L366.36104634371577 904.1966011250105 L453.1644452187053 842.1966011250105 Z" fill="#811092" shape-rendering="geometricPrecision"></path><path d="M428.2627457812106 813.1966011250105 L453.1644452187053 842.1966011250105 L532.0661446562 815.1966011250105 Z" fill="#6c1092" shape-rendering="geometricPrecision"></path><path d="M532.0661446562 815.1966011250105 L453.1644452187053 842.1966011250105 L574.9678440936947 917.1966011250105 Z" fill="#6e1092" shape-rendering="geometricPrecision"></path><path d="M532.0661446562 815.1966011250105 L574.9678440936947 917.1966011250105 L689.8695435311895 766.1966011250105 Z" fill="#7b1092" shape-rendering="geometricPrecision"></path><path d="M689.8695435311895 766.1966011250105 L574.9678440936947 917.1966011250105 L704.7712429686842 923.1966011250105 Z" fill="#6b1092" shape-rendering="geometricPrecision"></path><path d="M689.8695435311895 766.1966011250105 L704.7712429686842 923.1966011250105 L747.672942406179 816.1966011250105 Z" fill="#541092" shape-rendering="geometricPrecision"></path><path d="M747.672942406179 816.1966011250105 L704.7712429686842 923.1966011250105 L849.5746418436737 917.1966011250105 Z" fill="#631092" shape-rendering="geometricPrecision"></path><path d="M747.672942406179 816.1966011250105 L849.5746418436737 917.1966011250105 L891.4763412811686 791.1966011250105 Z" fill="#461092" shape-rendering="geometricPrecision"></path><path d="M891.4763412811686 791.1966011250105 L849.5746418436737 917.1966011250105 L908.3780407186633 841.1966011250105 Z" fill="#4c1092" shape-rendering="geometricPrecision"></path><path d="M891.4763412811686 791.1966011250105 L908.3780407186633 841.1966011250105 L963.279740156158 747.1966011250105 Z" fill="#471092" shape-rendering="geometricPrecision"></path><path d="M963.279740156158 747.1966011250105 L908.3780407186633 841.1966011250105 L1076.1814395936528 852.1966011250105 Z" fill="#3a1092" shape-rendering="geometricPrecision"></path><path d="M963.279740156158 747.1966011250105 L1076.1814395936528 852.1966011250105 L1083.0831390311475 834.1966011250105 Z" fill="#361092" shape-rendering="geometricPrecision"></path><path d="M-125.8525491562421 904.1966011250105 L-156.75424859373686 944.1966011250105 L-60.95084971874737 1018.1966011250105 Z" fill="#a71092" shape-rendering="geometricPrecision"></path><path d="M-125.8525491562421 904.1966011250105 L-60.95084971874737 1018.1966011250105 L41.95084971874737 902.1966011250105 Z" fill="#a11092" shape-rendering="geometricPrecision"></path><path d="M41.95084971874737 902.1966011250105 L-60.95084971874737 1018.1966011250105 L92.8525491562421 977.1966011250105 Z" fill="#9d1092" shape-rendering="geometricPrecision"></path><path d="M41.95084971874737 902.1966011250105 L92.8525491562421 977.1966011250105 L128.75424859373686 915.1966011250105 Z" fill="#931092" shape-rendering="geometricPrecision"></path><path d="M128.75424859373686 915.1966011250105 L92.8525491562421 977.1966011250105 L163.65594803123156 998.1966011250105 Z" fill="#931092" shape-rendering="geometricPrecision"></path><path d="M128.75424859373686 915.1966011250105 L163.65594803123156 998.1966011250105 L205.55764746872632 854.1966011250105 Z" fill="#9f1092" shape-rendering="geometricPrecision"></path><path d="M205.55764746872632 854.1966011250105 L163.65594803123156 998.1966011250105 L279.45934690622107 991.1966011250105 Z" fill="#921092" shape-rendering="geometricPrecision"></path><path d="M205.55764746872632 854.1966011250105 L279.45934690622107 991.1966011250105 L366.36104634371577 904.1966011250105 Z" fill="#8d1092" shape-rendering="geometricPrecision"></path><path d="M366.36104634371577 904.1966011250105 L279.45934690622107 991.1966011250105 L426.2627457812106 1029.1966011250106 Z" fill="#7c1092" shape-rendering="geometricPrecision"></path><path d="M366.36104634371577 904.1966011250105 L426.2627457812106 1029.1966011250106 L453.1644452187053 842.1966011250105 Z" fill="#841092" shape-rendering="geometricPrecision"></path><path d="M453.1644452187053 842.1966011250105 L426.2627457812106 1029.1966011250106 L511.0661446562 954.1966011250105 Z" fill="#6f1092" shape-rendering="geometricPrecision"></path><path d="M453.1644452187053 842.1966011250105 L511.0661446562 954.1966011250105 L574.9678440936947 917.1966011250105 Z" fill="#761092" shape-rendering="geometricPrecision"></path><path d="M574.9678440936947 917.1966011250105 L511.0661446562 954.1966011250105 L639.8695435311895 947.1966011250105 Z" fill="#691092" shape-rendering="geometricPrecision"></path><path d="M574.9678440936947 917.1966011250105 L639.8695435311895 947.1966011250105 L704.7712429686842 923.1966011250105 Z" fill="#6f1092" shape-rendering="geometricPrecision"></path><path d="M704.7712429686842 923.1966011250105 L639.8695435311895 947.1966011250105 L786.672942406179 1026.1966011250106 Z" fill="#511092" shape-rendering="geometricPrecision"></path><path d="M704.7712429686842 923.1966011250105 L786.672942406179 1026.1966011250106 L849.5746418436737 917.1966011250105 Z" fill="#451092" shape-rendering="geometricPrecision"></path><path d="M849.5746418436737 917.1966011250105 L786.672942406179 1026.1966011250106 L824.4763412811685 1027.1966011250106 Z" fill="#5a1092" shape-rendering="geometricPrecision"></path><path d="M849.5746418436737 917.1966011250105 L824.4763412811685 1027.1966011250106 L908.3780407186633 841.1966011250105 Z" fill="#3a1092" shape-rendering="geometricPrecision"></path><path d="M908.3780407186633 841.1966011250105 L824.4763412811685 1027.1966011250106 L955.279740156158 952.1966011250105 Z" fill="#3f1092" shape-rendering="geometricPrecision"></path><path d="M908.3780407186633 841.1966011250105 L955.279740156158 952.1966011250105 L1076.1814395936528 852.1966011250105 Z" fill="#3d1092" shape-rendering="geometricPrecision"></path><path d="M1076.1814395936528 852.1966011250105 L955.279740156158 952.1966011250105 L1100.0831390311475 972.1966011250105 Z" fill="#291092" shape-rendering="geometricPrecision"></path><path d="M-156.75424859373686 944.1966011250105 L-98.8525491562421 1053.1966011250106 L-60.95084971874737 1018.1966011250105 Z" fill="#9b1092" shape-rendering="geometricPrecision"></path><path d="M-60.95084971874737 1018.1966011250105 L-98.8525491562421 1053.1966011250106 L-3.049150281252629 1076.1966011250106 Z" fill="#ae1092" shape-rendering="geometricPrecision"></path><path d="M-60.95084971874737 1018.1966011250105 L-3.049150281252629 1076.1966011250106 L92.8525491562421 977.1966011250105 Z" fill="#a81092" shape-rendering="geometricPrecision"></path><path d="M92.8525491562421 977.1966011250105 L-3.049150281252629 1076.1966011250106 L96.75424859373686 1066.1966011250106 Z" fill="#a71092" shape-rendering="geometricPrecision"></path><path d="M92.8525491562421 977.1966011250105 L96.75424859373686 1066.1966011250106 L163.65594803123156 998.1966011250105 Z" fill="#9b1092" shape-rendering="geometricPrecision"></path><path d="M163.65594803123156 998.1966011250105 L96.75424859373686 1066.1966011250106 L266.5576474687263 1134.1966011250106 Z" fill="#861092" shape-rendering="geometricPrecision"></path><path d="M163.65594803123156 998.1966011250105 L266.5576474687263 1134.1966011250106 L279.45934690622107 991.1966011250105 Z" fill="#861092" shape-rendering="geometricPrecision"></path><path d="M279.45934690622107 991.1966011250105 L266.5576474687263 1134.1966011250106 L380.36104634371577 1042.1966011250106 Z" fill="#7d1092" shape-rendering="geometricPrecision"></path><path d="M279.45934690622107 991.1966011250105 L380.36104634371577 1042.1966011250106 L426.2627457812106 1029.1966011250106 Z" fill="#7f1092" shape-rendering="geometricPrecision"></path><path d="M426.2627457812106 1029.1966011250106 L380.36104634371577 1042.1966011250106 L505.1644452187053 1109.1966011250106 Z" fill="#6e1092" shape-rendering="geometricPrecision"></path><path d="M426.2627457812106 1029.1966011250106 L505.1644452187053 1109.1966011250106 L511.0661446562 954.1966011250105 Z" fill="#781092" shape-rendering="geometricPrecision"></path><path d="M511.0661446562 954.1966011250105 L505.1644452187053 1109.1966011250106 L593.9678440936947 1095.1966011250106 Z" fill="#5d1092" shape-rendering="geometricPrecision"></path><path d="M511.0661446562 954.1966011250105 L593.9678440936947 1095.1966011250106 L639.8695435311895 947.1966011250105 Z" fill="#671092" shape-rendering="geometricPrecision"></path><path d="M639.8695435311895 947.1966011250105 L593.9678440936947 1095.1966011250106 L691.7712429686842 1086.1966011250106 Z" fill="#4b1092" shape-rendering="geometricPrecision"></path><path d="M639.8695435311895 947.1966011250105 L691.7712429686842 1086.1966011250106 L786.672942406179 1026.1966011250106 Z" fill="#4f1092" shape-rendering="geometricPrecision"></path><path d="M786.672942406179 1026.1966011250106 L691.7712429686842 1086.1966011250106 L830.5746418436737 1102.1966011250106 Z" fill="#491092" shape-rendering="geometricPrecision"></path><path d="M786.672942406179 1026.1966011250106 L830.5746418436737 1102.1966011250106 L824.4763412811685 1027.1966011250106 Z" fill="#541092" shape-rendering="geometricPrecision"></path><path d="M824.4763412811685 1027.1966011250106 L830.5746418436737 1102.1966011250106 L943.3780407186633 1053.1966011250106 Z" fill="#4c1092" shape-rendering="geometricPrecision"></path><path d="M824.4763412811685 1027.1966011250106 L943.3780407186633 1053.1966011250106 L955.279740156158 952.1966011250105 Z" fill="#3d1092" shape-rendering="geometricPrecision"></path><path d="M955.279740156158 952.1966011250105 L943.3780407186633 1053.1966011250106 L1057.1814395936528 1116.1966011250106 Z" fill="#301092" shape-rendering="geometricPrecision"></path><path d="M955.279740156158 952.1966011250105 L1057.1814395936528 1116.1966011250106 L1100.0831390311475 972.1966011250105 Z" fill="#3a1092" shape-rendering="geometricPrecision"></path><path d="M-98.8525491562421 1053.1966011250106 L-115.75424859373686 1176.1966011250106 L19.04915028125263 1149.1966011250106 Z" fill="#9e1092" shape-rendering="geometricPrecision"></path><path d="M-98.8525491562421 1053.1966011250106 L19.04915028125263 1149.1966011250106 L-3.049150281252629 1076.1966011250106 Z" fill="#941092" shape-rendering="geometricPrecision"></path><path d="M-3.049150281252629 1076.1966011250106 L19.04915028125263 1149.1966011250106 L91.8525491562421 1214.1966011250106 Z" fill="#911092" shape-rendering="geometricPrecision"></path><path d="M-3.049150281252629 1076.1966011250106 L91.8525491562421 1214.1966011250106 L96.75424859373686 1066.1966011250106 Z" fill="#861092" shape-rendering="geometricPrecision"></path><path d="M96.75424859373686 1066.1966011250106 L91.8525491562421 1214.1966011250106 L148.65594803123156 1209.1966011250106 Z" fill="#7c1092" shape-rendering="geometricPrecision"></path><path d="M96.75424859373686 1066.1966011250106 L148.65594803123156 1209.1966011250106 L266.5576474687263 1134.1966011250106 Z" fill="#8c1092" shape-rendering="geometricPrecision"></path><path d="M266.5576474687263 1134.1966011250106 L148.65594803123156 1209.1966011250106 L324.45934690622107 1176.1966011250106 Z" fill="#8e1092" shape-rendering="geometricPrecision"></path><path d="M266.5576474687263 1134.1966011250106 L324.45934690622107 1176.1966011250106 L380.36104634371577 1042.1966011250106 Z" fill="#6c1092" shape-rendering="geometricPrecision"></path><path d="M380.36104634371577 1042.1966011250106 L324.45934690622107 1176.1966011250106 L452.2627457812106 1157.1966011250106 Z" fill="#651092" shape-rendering="geometricPrecision"></path><path d="M380.36104634371577 1042.1966011250106 L452.2627457812106 1157.1966011250106 L505.1644452187053 1109.1966011250106 Z" fill="#741092" shape-rendering="geometricPrecision"></path><path d="M505.1644452187053 1109.1966011250106 L452.2627457812106 1157.1966011250106 L490.0661446562 1159.1966011250106 Z" fill="#701092" shape-rendering="geometricPrecision"></path><path d="M505.1644452187053 1109.1966011250106 L490.0661446562 1159.1966011250106 L593.9678440936947 1095.1966011250106 Z" fill="#661092" shape-rendering="geometricPrecision"></path><path d="M593.9678440936947 1095.1966011250106 L490.0661446562 1159.1966011250106 L644.8695435311895 1200.1966011250106 Z" fill="#571092" shape-rendering="geometricPrecision"></path><path d="M593.9678440936947 1095.1966011250106 L644.8695435311895 1200.1966011250106 L691.7712429686842 1086.1966011250106 Z" fill="#561092" shape-rendering="geometricPrecision"></path><path d="M691.7712429686842 1086.1966011250106 L644.8695435311895 1200.1966011250106 L749.672942406179 1168.1966011250106 Z" fill="#531092" shape-rendering="geometricPrecision"></path><path d="M691.7712429686842 1086.1966011250106 L749.672942406179 1168.1966011250106 L830.5746418436737 1102.1966011250106 Z" fill="#421092" shape-rendering="geometricPrecision"></path><path d="M830.5746418436737 1102.1966011250106 L749.672942406179 1168.1966011250106 L830.4763412811685 1195.1966011250106 Z" fill="#3c1092" shape-rendering="geometricPrecision"></path><path d="M830.5746418436737 1102.1966011250106 L830.4763412811685 1195.1966011250106 L943.3780407186633 1053.1966011250106 Z" fill="#301092" shape-rendering="geometricPrecision"></path><path d="M943.3780407186633 1053.1966011250106 L830.4763412811685 1195.1966011250106 L1008.2797401561581 1235.1966011250106 Z" fill="#2a1092" shape-rendering="geometricPrecision"></path><path d="M943.3780407186633 1053.1966011250106 L1008.2797401561581 1235.1966011250106 L1057.1814395936528 1116.1966011250106 Z" fill="#381092" shape-rendering="geometricPrecision"></path><path d="M1057.1814395936528 1116.1966011250106 L1008.2797401561581 1235.1966011250106 L1133.0831390311475 1164.1966011250106 Z" fill="#371092" shape-rendering="geometricPrecision"></path><path d="M-115.75424859373686 1176.1966011250106 L-79.8525491562421 1308.1966011250106 L19.04915028125263 1149.1966011250106 Z" fill="#a11092" shape-rendering="geometricPrecision"></path><path d="M19.04915028125263 1149.1966011250106 L-79.8525491562421 1308.1966011250106 L52.95084971874737 1335.1966011250106 Z" fill="#8a1092" shape-rendering="geometricPrecision"></path><path d="M19.04915028125263 1149.1966011250106 L52.95084971874737 1335.1966011250106 L91.8525491562421 1214.1966011250106 Z" fill="#831092" shape-rendering="geometricPrecision"></path><path d="M91.8525491562421 1214.1966011250106 L52.95084971874737 1335.1966011250106 L186.75424859373686 1334.1966011250106 Z" fill="#811092" shape-rendering="geometricPrecision"></path><path d="M91.8525491562421 1214.1966011250106 L186.75424859373686 1334.1966011250106 L148.65594803123156 1209.1966011250106 Z" fill="#921092" shape-rendering="geometricPrecision"></path><path d="M148.65594803123156 1209.1966011250106 L186.75424859373686 1334.1966011250106 L207.55764746872632 1289.1966011250106 Z" fill="#7f1092" shape-rendering="geometricPrecision"></path><path d="M148.65594803123156 1209.1966011250106 L207.55764746872632 1289.1966011250106 L324.45934690622107 1176.1966011250106 Z" fill="#6b1092" shape-rendering="geometricPrecision"></path><path d="M324.45934690622107 1176.1966011250106 L207.55764746872632 1289.1966011250106 L402.36104634371577 1272.1966011250106 Z" fill="#6d1092" shape-rendering="geometricPrecision"></path><path d="M324.45934690622107 1176.1966011250106 L402.36104634371577 1272.1966011250106 L452.2627457812106 1157.1966011250106 Z" fill="#6b1092" shape-rendering="geometricPrecision"></path><path d="M452.2627457812106 1157.1966011250106 L402.36104634371577 1272.1966011250106 L469.1644452187053 1273.1966011250106 Z" fill="#5a1092" shape-rendering="geometricPrecision"></path><path d="M452.2627457812106 1157.1966011250106 L469.1644452187053 1273.1966011250106 L490.0661446562 1159.1966011250106 Z" fill="#5a1092" shape-rendering="geometricPrecision"></path><path d="M490.0661446562 1159.1966011250106 L469.1644452187053 1273.1966011250106 L621.9678440936947 1272.1966011250106 Z" fill="#531092" shape-rendering="geometricPrecision"></path><path d="M490.0661446562 1159.1966011250106 L621.9678440936947 1272.1966011250106 L644.8695435311895 1200.1966011250106 Z" fill="#441092" shape-rendering="geometricPrecision"></path><path d="M644.8695435311895 1200.1966011250106 L621.9678440936947 1272.1966011250106 L707.7712429686842 1290.1966011250106 Z" fill="#3e1092" shape-rendering="geometricPrecision"></path><path d="M644.8695435311895 1200.1966011250106 L707.7712429686842 1290.1966011250106 L749.672942406179 1168.1966011250106 Z" fill="#3b1092" shape-rendering="geometricPrecision"></path><path d="M749.672942406179 1168.1966011250106 L707.7712429686842 1290.1966011250106 L842.5746418436737 1319.1966011250106 Z" fill="#361092" shape-rendering="geometricPrecision"></path><path d="M749.672942406179 1168.1966011250106 L842.5746418436737 1319.1966011250106 L830.4763412811685 1195.1966011250106 Z" fill="#3c1092" shape-rendering="geometricPrecision"></path><path d="M830.4763412811685 1195.1966011250106 L842.5746418436737 1319.1966011250106 L965.3780407186633 1295.1966011250106 Z" fill="#2e1092" shape-rendering="geometricPrecision"></path><path d="M830.4763412811685 1195.1966011250106 L965.3780407186633 1295.1966011250106 L1008.2797401561581 1235.1966011250106 Z" fill="#301092" shape-rendering="geometricPrecision"></path><path d="M1008.2797401561581 1235.1966011250106 L965.3780407186633 1295.1966011250106 L1030.1814395936528 1315.1966011250106 Z" fill="#251092" shape-rendering="geometricPrecision"></path><path d="M1008.2797401561581 1235.1966011250106 L1030.1814395936528 1315.1966011250106 L1133.0831390311475 1164.1966011250106 Z" fill="#281092" shape-rendering="geometricPrecision"></path><path d="M-79.8525491562421 1308.1966011250106 L-167.75424859373686 1358.1966011250106 L-55.95084971874737 1366.1966011250106 Z" fill="#891092" shape-rendering="geometricPrecision"></path><path d="M-79.8525491562421 1308.1966011250106 L-55.95084971874737 1366.1966011250106 L52.95084971874737 1335.1966011250106 Z" fill="#8f1092" shape-rendering="geometricPrecision"></path><path d="M52.95084971874737 1335.1966011250106 L-55.95084971874737 1366.1966011250106 L123.8525491562421 1353.1966011250106 Z" fill="#961092" shape-rendering="geometricPrecision"></path><path d="M52.95084971874737 1335.1966011250106 L123.8525491562421 1353.1966011250106 L186.75424859373686 1334.1966011250106 Z" fill="#7f1092" shape-rendering="geometricPrecision"></path><path d="M186.75424859373686 1334.1966011250106 L123.8525491562421 1353.1966011250106 L175.65594803123156 1432.1966011250106 Z" fill="#821092" shape-rendering="geometricPrecision"></path><path d="M186.75424859373686 1334.1966011250106 L175.65594803123156 1432.1966011250106 L207.55764746872632 1289.1966011250106 Z" fill="#6d1092" shape-rendering="geometricPrecision"></path><path d="M207.55764746872632 1289.1966011250106 L175.65594803123156 1432.1966011250106 L270.45934690622107 1376.1966011250106 Z" fill="#761092" shape-rendering="geometricPrecision"></path><path d="M207.55764746872632 1289.1966011250106 L270.45934690622107 1376.1966011250106 L402.36104634371577 1272.1966011250106 Z" fill="#621092" shape-rendering="geometricPrecision"></path><path d="M402.36104634371577 1272.1966011250106 L270.45934690622107 1376.1966011250106 L411.2627457812106 1424.1966011250106 Z" fill="#611092" shape-rendering="geometricPrecision"></path><path d="M402.36104634371577 1272.1966011250106 L411.2627457812106 1424.1966011250106 L469.1644452187053 1273.1966011250106 Z" fill="#5f1092" shape-rendering="geometricPrecision"></path><path d="M469.1644452187053 1273.1966011250106 L411.2627457812106 1424.1966011250106 L502.0661446562 1388.1966011250106 Z" fill="#591092" shape-rendering="geometricPrecision"></path><path d="M469.1644452187053 1273.1966011250106 L502.0661446562 1388.1966011250106 L621.9678440936947 1272.1966011250106 Z" fill="#471092" shape-rendering="geometricPrecision"></path><path d="M621.9678440936947 1272.1966011250106 L502.0661446562 1388.1966011250106 L682.8695435311895 1348.1966011250106 Z" fill="#521092" shape-rendering="geometricPrecision"></path><path d="M621.9678440936947 1272.1966011250106 L682.8695435311895 1348.1966011250106 L707.7712429686842 1290.1966011250106 Z" fill="#461092" shape-rendering="geometricPrecision"></path><path d="M707.7712429686842 1290.1966011250106 L682.8695435311895 1348.1966011250106 L725.672942406179 1436.1966011250106 Z" fill="#4b1092" shape-rendering="geometricPrecision"></path><path d="M707.7712429686842 1290.1966011250106 L725.672942406179 1436.1966011250106 L842.5746418436737 1319.1966011250106 Z" fill="#491092" shape-rendering="geometricPrecision"></path><path d="M842.5746418436737 1319.1966011250106 L725.672942406179 1436.1966011250106 L848.4763412811686 1425.1966011250106 Z" fill="#321092" shape-rendering="geometricPrecision"></path><path d="M842.5746418436737 1319.1966011250106 L848.4763412811686 1425.1966011250106 L965.3780407186633 1295.1966011250106 Z" fill="#391092" shape-rendering="geometricPrecision"></path><path d="M965.3780407186633 1295.1966011250106 L848.4763412811686 1425.1966011250106 L986.279740156158 1416.1966011250106 Z" fill="#301092" shape-rendering="geometricPrecision"></path><path d="M965.3780407186633 1295.1966011250106 L986.279740156158 1416.1966011250106 L1030.1814395936528 1315.1966011250106 Z" fill="#211092" shape-rendering="geometricPrecision"></path><path d="M1030.1814395936528 1315.1966011250106 L986.279740156158 1416.1966011250106 L1092.0831390311475 1405.1966011250106 Z" fill="#231092" shape-rendering="geometricPrecision"></path></svg>